HIERARCHY
ROOT SimulationBone
{
	OFFSET 0.000000 0.000000 0.000000
	CHANNELS 6 Xposition Yposition Zposition Zrotation Yrotation Xrotation 
	JOINT Hips
	{
		OFFSET 0.000000 0.000000 0.000000
		CHANNELS 6 Xposition Yposition Zposition Zrotation Yrotation Xrotation 
		JOINT RightUpLeg
		{
			OFFSET 0.103458 1.857820 10.548502
			CHANNELS 3 Zrotation Yrotation Xrotation
			JOINT RightLeg
			{
				OFFSET 43.500000 -0.000023 -0.000011
				CHANNELS 3 Zrotation Yrotation Xrotation
				JOINT RightFoot
				{
					OFFSET 42.372192 0.000038 0.000002
					CHANNELS 3 Zrotation Yrotation Xrotation
					JOINT RightToe
					{
						OFFSET 17.299992 -0.000004 0.000006
						CHANNELS 3 Zrotation Yrotation Xrotation
						End Site
						{
							OFFSET 0.000000 0.000000 0.000000
						}
					}
				}
			}
		}
		JOINT LeftUpLeg
		{
			OFFSET 0.103461 1.857814 -10.548508
			CHANNELS 3 Zrotation Yrotation Xrotation
			JOINT LeftLeg
			{
				OFFSET 43.500042 -0.000015 0.000008
				CHANNELS 3 Zrotation Yrotation Xrotation
				JOINT LeftFoot
				{
					OFFSET 42.372253 0.000008 0.000006
					CHANNELS 3 Zrotation Yrotation Xrotation
					JOINT LeftToe
					{
						OFFSET 17.299973 -0.000014 0.000011
						CHANNELS 3 Zrotation Yrotation Xrotation
						End Site
						{
							OFFSET 0.000000 0.000000 0.000000
						}
					}
				}
			}
		}
		JOINT Spine
		{
			OFFSET 6.901966 -2.603737 -0.000007
			CHANNELS 3 Zrotation Yrotation Xrotation
			JOINT Spine1
			{
				OFFSET 12.588102 0.000017 0.000001
				CHANNELS 3 Zrotation Yrotation Xrotation
				JOINT Spine2
				{
					OFFSET 12.343197 -0.000013 0.000000
					CHANNELS 3 Zrotation Yrotation Xrotation
					JOINT Neck
					{
						OFFSET 25.832905 -0.000008 0.000000
						CHANNELS 3 Zrotation Yrotation Xrotation
						JOINT Head
						{
							OFFSET 11.766610 0.000009 -0.000002
							CHANNELS 3 Zrotation Yrotation Xrotation
							End Site
							{
								OFFSET 0.000000 0.000000 0.000000
							}
						}
					}
					JOINT RightShoulder
					{
						OFFSET 19.745903 -1.480377 6.000115
						CHANNELS 3 Zrotation Yrotation Xrotation
						JOINT RightArm
						{
							OFFSET 11.284125 -0.000014 -0.000024
							CHANNELS 3 Zrotation Yrotation Xrotation
							JOINT RightForeArm
							{
								OFFSET 33.000046 -0.000012 0.000029
								CHANNELS 3 Zrotation Yrotation Xrotation
								JOINT RightHand
								{
									OFFSET 25.199989 0.000034 0.000012
									CHANNELS 3 Zrotation Yrotation Xrotation
									End Site
									{
										OFFSET 0.000000 0.000000 0.000000
									}
								}
							}
						}
					}
					JOINT LeftShoulder
					{
						OFFSET 19.746098 -1.480362 -6.000071
						CHANNELS 3 Zrotation Yrotation Xrotation
						JOINT LeftArm
						{
							OFFSET 11.284137 -0.000006 -0.000008
							CHANNELS 3 Zrotation Yrotation Xrotation
							JOINT LeftForeArm
							{
								OFFSET 33.000095 0.000017 0.000000
								CHANNELS 3 Zrotation Yrotation Xrotation
								JOINT LeftHand
								{
									OFFSET 25.199778 0.000144 0.000423
									CHANNELS 3 Zrotation Yrotation Xrotation
									End Site
									{
										OFFSET 0.000000 0.000000 0.000000
									}
								}
							}
						}
					}
				}
			}
		}
	}
}
MOTION
Frames: 11
Frame Time: 0.033333
-56.412791 0.000000 -154.584002 0.000000 84.164928 0.000000 4.075671 85.197487 0.462783 101.078188 1.096392 175.844378 158.472874 0.661707 -178.816866 -35.768854 -5.926903 -8.339033 72.554245 7.129675 3.376257 21.454560 0.003110 0.000017 -167.224368 -1.755599 -178.494003 -77.224270 -0.459955 8.630791 65.928100 -2.529406 9.782871 21.454551 -0.003095 -0.000001 8.241696 -0.569813 2.080663 6.448365 -1.254198 4.126659 6.131080 -1.229397 4.134127 3.090629 0.582752 4.554432 -3.827511 -2.778129 5.378569 -146.713980 -66.657298 -35.790232 22.940720 42.840299 45.887140 -77.972798 -10.168070 2.528178 -9.902589 -7.625713 19.596369 -172.342215 75.138815 9.313720 1.398043 -55.153156 -29.008568 -93.598255 2.946311 -2.670979 -5.895992 -0.617229 -36.684287 
-54.720998 0.000000 -162.352064 0.000000 83.546045 0.000000 4.107617 82.306480 -0.022721 103.587198 -0.786564 178.085813 157.927006 3.390398 -179.850356 -51.557598 -4.565577 -7.311502 83.934460 5.587442 2.018018 21.454560 0.003106 0.000018 -171.103028 0.701991 -175.074073 -88.504901 -2.565727 9.179457 68.152229 -3.979808 7.149112 21.454558 -0.003094 -0.000004 9.177210 -1.066034 1.349294 8.317664 -2.226078 2.619000 7.999668 -2.210360 2.632369 0.713126 0.576876 4.669059 -2.967263 -2.123370 5.306968 -152.182994 -65.228013 -30.170732 11.717136 43.281669 37.631276 -76.012082 -11.702499 2.550925 -10.418694 -9.131559 19.617581 -170.457520 73.558713 11.239314 1.271964 -55.676383 -27.359711 -87.436571 6.064227 -2.615830 -4.915489 -0.151216 -43.188434 
-53.017960 0.000000 -170.041702 0.000000 82.874456 0.000000 3.543491 80.623108 -0.252953 104.488032 -2.412130 179.729069 160.463588 3.985108 178.918608 -58.729047 -4.656284 -6.021021 91.794696 4.424390 1.719930 21.454557 0.003112 0.000017 -177.952888 1.901305 -174.709764 -96.227660 -3.390262 10.044936 70.294073 -5.217945 5.521488 21.454557 -0.003087 0.000011 9.754187 -1.447492 0.865041 9.477878 -2.960825 1.609085 9.159432 -2.951190 1.626945 -0.267872 0.362173 4.485944 -2.501077 -1.813195 4.998850 -157.577969 -65.038482 -24.572570 0.148970 43.306101 29.075504 -75.691958 -12.778898 2.612371 -11.072625 -7.821930 25.093927 -167.030282 71.563123 14.762318 5.075670 -55.424745 -28.132378 -84.488702 7.856021 -2.611457 -5.130252 0.791303 -45.877646 
-51.342877 0.000000 -177.601052 0.000000 82.174514 0.000000 3.020881 79.992882 -0.293801 104.432632 -3.186690 -178.856482 164.621288 3.230191 176.714479 -61.479093 -3.630182 -4.171240 97.656918 3.004552 1.629810 21.454558 0.003108 0.000017 174.224670 1.933593 -175.307501 -99.031965 -3.549121 10.449654 71.342405 -5.737807 4.909417 21.454548 -0.003093 0.000000 9.885253 -1.610095 0.355380 9.753419 -3.244282 0.573962 9.434785 -3.240885 0.593542 2.079715 0.482386 4.637369 -2.952641 -2.036481 5.244614 -161.353998 -66.084614 -20.633797 -7.107843 43.224408 22.743946 -79.008323 -11.136950 2.640698 -11.979854 -7.188588 26.861450 -162.716006 70.711104 19.211480 12.809581 -54.596048 -32.687943 -85.394925 6.472217 -2.554471 -5.735034 3.542909 -37.175156 
-49.704958 0.000000 -185.015952 0.000000 81.468129 0.000000 2.540542 80.580360 -0.263722 103.792702 -3.670032 -176.435084 170.228258 2.534003 178.216602 -59.651402 -4.364517 -3.162878 100.753104 2.275412 1.483029 21.454560 0.003110 0.000016 167.030978 2.334598 -174.720597 -96.052780 -3.217554 10.904579 71.801845 -6.051298 5.145500 21.454551 -0.003091 0.000005 9.780803 -1.570723 -0.632750 9.570994 -3.083647 -1.393765 9.252507 -3.092134 -1.375104 4.413133 0.273058 5.231533 -1.221899 -2.378234 5.860048 -161.967063 -67.107701 -19.984912 -11.447110 43.223414 18.864043 -83.722301 -8.651956 2.673248 -11.840460 -6.679639 24.764418 -157.495174 70.992494 24.584776 19.469012 -53.306481 -38.892555 -87.640848 4.867262 -2.541191 -5.788327 5.115539 -31.409328 
-48.102243 0.000000 -192.271324 0.000000 80.773270 0.000000 2.571919 82.382507 -0.128092 103.351846 -3.340946 -174.902666 177.691688 1.064706 -179.719995 -53.934756 -5.344595 -2.972199 99.825844 2.153080 0.792420 21.454558 0.003112 0.000016 162.237989 1.955514 -175.814533 -87.623199 -1.349238 10.941911 72.336942 -6.105202 5.422726 21.454553 -0.003089 0.000000 9.562036 -1.335800 -1.381802 9.145539 -2.558181 -2.865498 8.827541 -2.575550 -2.850025 7.321888 0.395953 5.788523 0.203285 -3.468126 6.641014 -162.469969 -67.983106 -19.454228 -12.699341 43.652798 16.497436 -88.615988 -5.797958 2.690526 -12.804256 -5.475787 26.117335 -154.199840 71.140798 27.973308 25.140287 -50.862585 -44.908081 -89.118457 3.723845 -2.526570 -6.100133 6.804431 -30.133101 
-46.518691 0.000000 -199.378207 0.000000 80.101180 0.000000 2.851196 84.772957 -0.022336 102.597637 -2.753208 -174.424030 -175.360968 -0.377501 -178.673377 -47.137738 -5.929091 -3.505207 92.610706 2.652163 0.905208 21.454560 0.003107 0.000021 159.330186 1.324899 -179.020214 -74.845486 2.339103 11.360661 72.740463 -6.580132 5.324714 21.454563 -0.003097 0.000003 9.194940 -1.075152 -1.846575 8.411483 -2.013309 -3.766893 8.093924 -2.036134 -3.754696 10.461307 0.634749 6.232992 0.552533 -5.114542 7.451788 -161.308974 -69.084782 -20.640789 -12.216715 45.331522 15.643578 -92.239403 -3.143411 2.666713 -13.128076 -4.680755 27.548620 -151.981695 71.643418 30.241212 30.024757 -48.403775 -50.145989 -90.169958 2.978378 -2.521036 -6.275145 7.466444 -28.763197 
-44.954808 0.000000 -206.353410 0.000000 79.461148 0.000000 3.257692 87.135567 0.179009 101.533469 -1.339907 -174.067862 -170.013367 -2.817998 -179.259257 -41.713297 -5.957662 -3.398873 82.921208 2.682916 0.657492 21.454558 0.003103 0.000017 158.423888 -0.214607 179.561370 -58.481364 3.994243 11.540392 73.335174 -6.581829 5.990318 21.454557 -0.003095 0.000000 8.764547 -0.570104 -2.115426 7.535212 -1.001480 -4.263561 7.218034 -1.027322 -4.257452 13.172758 0.405403 6.585225 0.511427 -6.164589 8.029372 -160.025991 -69.439910 -21.961488 -10.762588 46.569391 17.801664 -95.202073 -2.225322 2.735226 -12.507489 -4.495294 27.581979 -149.888119 72.120302 32.377904 33.609428 -45.830877 -54.669462 -90.817200 2.739919 -2.533065 -5.882973 9.425064 -26.789708 
-43.402490 0.000000 -213.237095 0.000000 78.879783 0.000000 3.692879 88.967087 0.290579 100.244319 -0.590453 -173.993686 -166.844596 -4.190704 178.187164 -39.846682 -4.494653 -2.469387 74.801814 1.774749 -0.459393 21.454557 0.003103 0.000018 159.025505 -1.414394 -176.487485 -40.303167 0.251248 8.872831 72.229886 -4.309086 6.779010 21.454551 -0.003094 0.000000 8.364098 -0.223917 -2.222213 6.721617 -0.318736 -4.453621 6.404568 -0.345728 -4.451622 14.639199 0.737823 6.858233 0.597875 -7.036723 8.505991 -158.333989 -69.873996 -23.699522 -8.621571 47.599534 20.758934 -97.883461 -1.515520 2.805777 -11.593244 -3.931452 26.087370 -148.552776 71.964506 33.753818 36.036498 -43.305554 -57.680749 -91.424138 2.448175 -2.539600 -5.246536 12.447639 -22.313209 
-41.858998 0.000000 -220.064752 0.000000 78.386821 0.000000 4.108928 90.477180 0.158788 99.174165 -1.121081 -173.784568 -166.040861 -3.736804 178.207873 -41.505116 -3.223579 -2.508118 66.749711 1.024541 -2.495040 21.454558 0.003111 0.000021 160.902864 -1.168399 -175.561038 -23.896184 -0.668259 5.730142 72.940260 -2.534302 5.266597 21.454551 -0.003084 0.000004 8.054287 -0.191206 -2.280261 6.101005 -0.262419 -4.567391 5.784022 -0.290094 -4.565733 15.345024 1.331336 6.866017 -0.005758 -7.396765 8.658680 -156.979016 -70.560321 -25.083361 -5.719048 48.219872 23.939174 -101.046495 -0.799940 2.897255 -10.018569 -3.218853 25.099666 -146.366104 72.279521 35.987017 38.543102 -42.564953 -59.681367 -92.035761 2.212387 -2.550280 -4.990488 14.493134 -19.201318 
-40.317645 0.000000 -226.850861 0.000000 77.986328 0.000000 4.342901 90.915039 -0.059840 98.922900 -1.391741 -173.550345 -167.079568 -2.948507 -179.814279 -46.863803 -1.964817 -2.209933 60.361688 0.281229 -3.306623 21.454557 0.003111 0.000018 162.637569 -0.848210 179.191734 -15.044310 1.545967 7.839353 74.509195 -4.111809 5.385043 21.454551 -0.003089 0.000003 7.990509 -0.113683 -2.193403 5.970394 -0.114513 -4.389696 5.653320 -0.141133 -4.388930 14.935433 1.967000 6.860975 -0.492377 -6.925047 8.617696 -155.779048 -71.239898 -26.304628 -2.606305 48.353047 26.563234 -104.554097 0.010417 2.996781 -8.791512 -2.359770 24.617720 -143.998720 72.098002 38.422085 39.837471 -42.549941 -59.537379 -92.705550 2.067349 -2.569899 -5.179285 14.334310 -18.490762 
